<?xml version="1.0" encoding="UTF-8"?>
<svg xmlns="http://www.w3.org/2000/svg" viewBox="0 0 256 256" width="256" height="256">
  <!-- Flat, solid background with zero radius and zero shadows -->
  <rect width="256" height="256" fill="#FFFFFF" />
  <g stroke-linecap="round" stroke-linejoin="round">
                <circle cx="186" cy="112" r="44" fill="#000000" opacity="0.08" />
                <path d="M52 176 C86 176 102 148 126 148 C150 148 160 120 186 112" fill="none" stroke="#000000" stroke-width="9" />
                <path d="M52 92 C88 92 104 116 126 148" fill="none" stroke="#000000" stroke-width="9" />
                <path d="M126 148 C144 176 164 186 196 186" fill="none" stroke="#000000" stroke-width="4.5" stroke-dasharray="10 10" opacity="0.4" />
                <circle cx="52" cy="92" r="11" fill="#000000" />
                <circle cx="52" cy="92" r="4.5" fill="#FFFFFF" />
                <circle cx="52" cy="176" r="11" fill="#FFFFFF" stroke="#000000" stroke-width="4.5" />
                <circle cx="126" cy="148" r="12.5" fill="#000000" />
                <path d="M121 148 L125 152 L132 144" fill="none" stroke="#FFFFFF" stroke-width="3" />
                <polygon points="186,76 222,112 186,148 150,112" fill="#000000" />
                <polygon points="186,90 208,112 186,134 164,112" fill="#A5A5A5" />
                <circle cx="186" cy="112" r="4.5" fill="#FFFFFF" />
              </g>
</svg>